<svg width="367" height="170" viewBox="0 0 367 170" fill="none" xmlns="http://www.w3.org/2000/svg">
<path d="M13.3721 1.50001C13.1541 9.93239 7.63831 16.8804 0.589845 17.1953L0.589846 21.3662C2.8419 21.6773 4.45994 24.0007 4.45996 26.6191C4.45996 29.2466 2.82507 31.5634 0.565433 31.8643L0.565433 36.0733C2.82595 36.3754 4.45109 38.7044 4.45118 41.3291C4.45118 43.9564 2.81705 46.2731 0.557622 46.5742L0.557622 50.7832C2.8179 51.0855 4.44321 53.4145 4.44337 56.0391C4.44337 58.6666 2.80856 60.9834 0.548834 61.2842L0.548835 65.4941C2.80947 65.7962 4.43458 68.1251 4.43458 70.75C4.43439 73.3771 2.80041 75.6932 0.541023 75.9941L0.541024 80.2041C2.80147 80.5064 4.42677 82.8352 4.42677 85.46C4.42664 88.087 2.79243 90.4029 0.533213 90.7041L0.533213 94.9141C2.79347 95.2165 4.41896 97.5453 4.41896 100.17C4.4189 102.797 2.78406 105.114 0.524425 105.415L0.524425 109.624C2.785 109.926 4.41016 112.255 4.41017 114.88C4.41017 117.507 2.77607 119.824 0.516614 120.125L0.516614 124.334C2.77695 124.636 4.40228 126.965 4.40236 129.59C4.40236 132.217 2.76757 134.534 0.507827 134.835L0.507827 139.044C2.76843 139.346 4.3944 141.675 4.39455 144.3C4.39455 146.927 2.75956 149.244 0.500016 149.545L0.500016 153.733C7.54808 154.058 13.0563 161.017 13.2666 169.449L122.394 169.499L122.394 165.39C121.934 165.282 121.496 165.02 121.137 164.578L121.138 164.577C120.368 163.651 120.298 162.437 120.641 161.477C120.926 160.679 121.542 159.951 122.394 159.748L122.394 154.419C121.231 154.137 120.459 152.893 120.459 151.59C120.459 150.272 121.241 149.046 122.401 148.769L122.401 143.429C121.239 143.147 120.467 141.903 120.467 140.6C120.467 139.281 121.25 138.056 122.41 137.778L122.41 132.439C121.248 132.158 120.475 130.914 120.475 129.61C120.475 128.292 121.258 127.066 122.418 126.789L122.418 121.45C121.256 121.17 120.483 119.933 120.483 118.62C120.484 117.312 121.265 116.079 122.426 115.8L122.426 110.46C121.264 110.18 120.491 108.944 120.491 107.631C120.491 106.323 121.273 105.09 122.435 104.811L122.435 99.4707C121.273 99.1908 120.5 97.9539 120.5 96.6406C120.5 95.3327 121.281 94.0997 122.442 93.8203L122.442 88.4902C121.28 88.2083 120.508 86.9642 120.508 85.6611C120.508 84.3429 121.291 83.117 122.451 82.8398L122.451 77.501C121.289 77.2194 120.516 75.9751 120.516 74.6719C120.516 73.3537 121.299 72.128 122.459 71.8506L122.459 66.5107C121.297 66.2289 120.524 64.9848 120.524 63.6816C120.524 62.3637 121.307 61.1379 122.467 60.8604L122.467 55.5215C121.305 55.2395 120.532 53.9954 120.532 52.6924C120.532 51.3742 121.315 50.1484 122.476 49.8711L122.476 44.5322C121.314 44.2524 120.541 43.0155 120.541 41.7021C120.541 40.3942 121.322 39.1612 122.483 38.8818L122.483 33.542C121.322 33.2619 120.549 32.0259 120.549 30.7129C120.549 29.4046 121.331 28.1707 122.492 27.8916L122.492 22.5527C121.33 22.273 120.557 21.0361 120.557 19.7227C120.557 18.4146 121.339 17.1816 122.5 16.9023L122.5 11.5547C122.044 11.449 121.609 11.1916 121.243 10.7422L121.244 10.7412C120.482 9.824 120.411 8.6106 120.75 7.65039C121.032 6.85243 121.645 6.11975 122.5 5.91895L122.5 1.5498L13.3721 1.50001Z" fill="white" stroke="#FFD8D1"/>
<path d="M124.451 162.218C124.612 161.077 124.186 159.735 123.303 159.402C123.204 159.371 123.111 159.361 123.019 159.351L123.019 153.133C123.834 153.133 124.482 152.062 124.482 150.75C124.482 149.428 123.834 148.368 123.025 148.358L123.025 142.129C123.84 142.129 124.488 141.059 124.488 139.746C124.488 138.424 123.84 137.364 123.031 137.354L123.031 131.125C123.846 131.125 124.494 130.055 124.494 128.743C124.494 127.42 123.846 126.36 123.037 126.35L123.037 120.122C123.852 120.122 124.5 119.062 124.5 117.739C124.5 116.427 123.852 115.357 123.043 115.347L123.043 109.118C123.858 109.118 124.507 108.058 124.507 106.735C124.507 105.423 123.858 104.353 123.049 104.343L123.049 98.1143C123.864 98.1143 124.513 97.0543 124.513 95.7318C124.513 94.4195 123.864 93.3494 123.056 93.3393L123.056 87.1207C123.871 87.1207 124.519 86.0506 124.519 84.7382C124.519 83.4158 123.871 82.3558 123.062 82.3457L123.062 76.117C123.877 76.117 124.525 75.047 124.525 73.7346C124.525 72.4121 123.877 71.3522 123.068 71.3421L123.068 65.1134C123.883 65.1134 124.531 64.0433 124.531 62.7309C124.531 61.4085 123.883 60.3485 123.074 60.3384L123.074 54.1097C123.889 54.1097 124.537 53.0397 124.537 51.7273C124.537 50.4048 123.889 49.3449 123.08 49.3348L123.08 43.1061C123.895 43.1061 124.544 42.0461 124.544 40.7236C124.544 39.4113 123.895 38.3412 123.086 38.3311L123.086 32.1024C123.901 32.1024 124.55 31.0424 124.55 29.72C124.55 28.4076 123.901 27.3375 123.093 27.3274L123.093 21.0988C123.908 21.0988 124.556 20.0388 124.556 18.7163C124.556 17.404 123.908 16.3339 123.099 16.3238L123.099 10.085C123.772 10.085 124.414 9.32789 124.531 8.18714C124.716 6.86468 124.105 5.56242 123.383 5.3807C123.284 5.35042 123.191 5.34032 123.099 5.33023L123.099 1.77751e-05L357.38 0.816523C357.38 9.5084 361.684 16.5548 367 16.5649L367 21.7134C365.382 21.7134 364.067 23.8536 364.067 26.4985C364.067 29.1434 365.376 31.2937 366.994 31.2937L366.994 36.4421C365.376 36.4421 364.061 38.5822 364.061 41.2271C364.061 43.872 365.37 46.0223 366.988 46.0223L366.988 51.1708C365.37 51.1708 364.055 53.311 364.055 55.9559C364.055 58.6008 365.364 60.751 366.981 60.751L366.981 65.8995C365.364 65.8995 364.049 68.0397 364.049 70.6846C364.049 73.3295 365.358 75.48 366.975 75.48L366.975 80.6285C365.358 80.6285 364.042 82.7686 364.042 85.4136C364.042 88.0585 365.351 90.2087 366.969 90.2087L366.969 95.3572C365.351 95.3572 364.036 97.4974 364.036 100.142C364.036 102.787 365.345 104.937 366.963 104.937L366.963 110.086C365.345 110.086 364.03 112.226 364.03 114.871C364.03 117.516 365.339 119.666 366.957 119.666L366.957 124.815C365.339 124.815 364.024 126.955 364.024 129.6C364.024 132.245 365.333 134.395 366.951 134.395L366.951 139.543C365.333 139.543 364.018 141.684 364.018 144.329C364.018 146.973 365.327 149.123 366.944 149.123L366.944 154.272C361.628 154.272 357.318 161.308 357.312 170L123 169.194L123 164.136C123.667 164.136 124.309 163.389 124.432 162.238L124.451 162.218Z" fill="#EF4023"/>
</svg>
